<svg xmlns="http://www.w3.org/2000/svg" viewBox="0 0 460 270" fill="none">

  <!-- ══ HAMSA HAND — single traced outline ══ -->
  <g stroke="#DC9D86" stroke-width="2" fill="none" stroke-linecap="round" stroke-linejoin="round">
    <path d="
      M 100,258
      C 130,263 162,255 180,239
      C 194,225 198,208 196,190
      C 194,172 190,156 187,142
      C 185,132 183,124 181,118
      C 181,110 181,102 182,94
      C 183,86 183,78 183,70
      A 14,14 0 0,0 155,70
      C 155,78 154,86 153,94
      C 152,102 151,110 151,118
      C 147,130 140,132 137,120
      L 137,34
      A 11,11 0 0,0 115,34
      L 115,120
      Q 112,125 112,120
      L 112,16
      A 12,12 0 0,0 88,16
      L 88,120
      Q 88,125 85,120
      L 85,34
      A 11,11 0 0,0 63,34
      L 63,120
      C 60,132 53,130 49,118
      C 49,110 49,102 47,94
      C 46,86 47,78 47,70
      A 14,14 0 0,0 19,70
      C 19,78 17,86 17,94
      C 17,102 17,110 17,118
      C 15,124 12,132 4,190
      C 2,208 6,225 20,239
      C 38,255 70,263 100,258
      Z
    "/>
    <!-- Finger groove lines (middle finger edges continuing into palm) -->
    <line x1="88"  y1="120" x2="88"  y2="188" stroke-width="1.3"/>
    <line x1="112" y1="120" x2="112" y2="188" stroke-width="1.3"/>
  </g>

  <!-- Thin separator -->
  <line x1="220" y1="24" x2="220" y2="248" stroke="#DC9D86" stroke-width="0.7" opacity="0.32"/>

  <!-- Brand name -->
  <text
    x="240" y="152"
    font-family="'Cormorant', Georgia, serif"
    font-size="52"
    font-weight="500"
    font-style="italic"
    letter-spacing="2"
    fill="#D5C2A9"
  >Dar Fatima</text>

</svg>
